<svg width="12" height="14" viewBox="0 0 12 14" fill="none" xmlns="http://www.w3.org/2000/svg">
<path fill-rule="evenodd" clip-rule="evenodd" d="M5.99999 3.5C4.71133 3.5 3.66666 4.54467 3.66666 5.83333C3.66666 7.122 4.71133 8.16667 5.99999 8.16667C7.28865 8.16667 8.33332 7.122 8.33332 5.83333C8.33332 4.54467 7.28865 3.5 5.99999 3.5ZM4.83332 5.83333C4.83332 5.189 5.35566 4.66667 5.99999 4.66667C6.64432 4.66667 7.16666 5.189 7.16666 5.83333C7.16666 6.47767 6.64432 7 5.99999 7C5.35566 7 4.83332 6.47767 4.83332 5.83333Z" fill="#12F7D6"/>
<path fill-rule="evenodd" clip-rule="evenodd" d="M5.6761 13.9018C5.67627 13.9019 5.67641 13.902 5.99999 13.4167L5.6761 13.9018C5.87204 14.0324 6.12762 14.0327 6.32356 13.902L5.99999 13.4167C6.32356 13.902 6.3234 13.9021 6.32356 13.902L6.32555 13.9007L6.32944 13.8981L6.3428 13.8891C6.35416 13.8813 6.37036 13.8703 6.39108 13.8559C6.43251 13.8272 6.49205 13.7854 6.56711 13.7312C6.71717 13.6228 6.92961 13.4646 7.18368 13.2623C7.69088 12.8584 8.36868 12.275 9.04846 11.5574C10.3842 10.1475 11.8333 8.10947 11.8333 5.83333C11.8333 4.28624 11.2187 2.80251 10.1248 1.70854C9.03082 0.614581 7.54709 0 5.99999 0C4.45289 0 2.96916 0.614581 1.8752 1.70854C0.781238 2.80251 0.166656 4.28624 0.166656 5.83333C0.166656 8.10947 1.61581 10.1475 2.95152 11.5574C3.6313 12.275 4.3091 12.8584 4.8163 13.2623C5.07037 13.4646 5.28281 13.6228 5.43287 13.7312C5.50793 13.7854 5.56747 13.8272 5.6089 13.8559C5.62962 13.8703 5.64582 13.8813 5.65718 13.8891L5.67054 13.8981L5.67443 13.9007L5.6761 13.9018ZM2.70016 2.5335C3.57533 1.65833 4.76231 1.16667 5.99999 1.16667C7.23767 1.16667 8.42465 1.65833 9.29982 2.5335C10.175 3.40867 10.6667 4.59566 10.6667 5.83333C10.6667 7.64053 9.49081 9.39415 8.20152 10.7551C7.5688 11.4229 6.9341 11.9697 6.45693 12.3497C6.27934 12.4911 6.12423 12.6089 5.99999 12.7007C5.87575 12.6089 5.72064 12.4911 5.54305 12.3497C5.06588 11.9697 4.43118 11.4229 3.79846 10.7551C2.50917 9.39415 1.33332 7.64053 1.33332 5.83333C1.33332 4.59566 1.82499 3.40867 2.70016 2.5335Z" fill="#12F7D6"/>
</svg>
