<svg width="20" height="20" viewBox="0 0 20 20" fill="none" xmlns="http://www.w3.org/2000/svg">
<path d="M10.0001 1.87225C8.02133 1.87234 6.10716 2.57651 4.60008 3.85879C3.09299 5.14107 2.09135 6.91777 1.77438 8.87099C1.45741 10.8242 1.84579 12.8265 2.87002 14.5195C3.89425 16.2126 5.48751 17.486 7.3647 18.1118C7.78137 18.1848 7.93762 17.9348 7.93762 17.716C7.93762 17.5181 7.9272 16.8618 7.9272 16.1639C5.83344 16.5493 5.29177 15.6535 5.1251 15.1848C4.94017 14.7289 4.647 14.3249 4.27094 14.0077C3.97927 13.8514 3.5626 13.466 4.26051 13.4556C4.527 13.4845 4.78259 13.5773 5.00563 13.7259C5.22867 13.8746 5.41257 14.0749 5.54177 14.3097C5.65575 14.5145 5.809 14.6947 5.99276 14.8402C6.17652 14.9856 6.38717 15.0933 6.61263 15.1572C6.8381 15.221 7.07395 15.2398 7.30667 15.2123C7.53939 15.1849 7.76441 15.1118 7.96884 14.9972C8.00491 14.5736 8.19372 14.1775 8.5001 13.8827C6.64594 13.6744 4.70844 12.9556 4.70844 9.76811C4.69673 8.9399 5.00234 8.13859 5.5626 7.52853C5.30784 6.80871 5.33765 6.01877 5.64594 5.3202C5.64594 5.3202 6.34383 5.10144 7.9376 6.17436C9.30118 5.79934 10.7407 5.79934 12.1043 6.17436C13.698 5.09103 14.3959 5.3202 14.3959 5.3202C14.7043 6.01876 14.7341 6.80872 14.4793 7.52853C15.0412 8.13755 15.3471 8.93956 15.3334 9.76811C15.3334 12.966 13.3855 13.6744 11.5314 13.8827C11.7302 14.0843 11.8834 14.3263 11.9805 14.5923C12.0775 14.8583 12.1162 15.1421 12.0939 15.4244C12.0939 16.539 12.0834 17.4348 12.0834 17.716C12.0834 17.9348 12.2397 18.1952 12.6563 18.1119C14.5302 17.4809 16.1189 16.2046 17.1388 14.5106C18.1587 12.8167 18.5433 10.8154 18.2242 8.86412C17.905 6.91279 16.9027 5.1384 15.3963 3.85768C13.8899 2.57696 11.9774 1.87328 10.0001 1.87225Z" fill="#12F7D6"/>
</svg>
