<svg width="20" height="20" viewBox="0 0 20 20" fill="none" xmlns="http://www.w3.org/2000/svg">
<g clip-path="url(#clip0_540_816)">
<path fill-rule="evenodd" clip-rule="evenodd" d="M8.11689 6.26551C8.8948 5.86187 9.78019 5.71379 10.6471 5.84235C11.5314 5.97348 12.3501 6.38554 12.9822 7.01767C13.6143 7.64979 14.0264 8.46847 14.1575 9.35276C14.2861 10.2197 14.138 11.1051 13.7344 11.883C13.3307 12.6609 12.6921 13.2917 11.9092 13.6858C11.1264 14.0798 10.2392 14.2169 9.37397 14.0777C8.5087 13.9385 7.70936 13.5299 7.08965 12.9102C6.46994 12.2905 6.06142 11.4912 5.92218 10.6259C5.78295 9.76063 5.9201 8.87349 6.31412 8.09065C6.70814 7.30782 7.33897 6.66916 8.11689 6.26551ZM10.4026 7.49098C9.88249 7.41385 9.35126 7.5027 8.88451 7.74489C8.41776 7.98707 8.03926 8.37027 7.80284 8.83997C7.56643 9.30967 7.48414 9.84196 7.56768 10.3611C7.65122 10.8803 7.89634 11.3599 8.26817 11.7317C8.63999 12.1035 9.11959 12.3487 9.63876 12.4322C10.1579 12.5157 10.6902 12.4334 11.1599 12.197C11.6296 11.9606 12.0128 11.5821 12.255 11.1154C12.4972 10.6486 12.586 10.1174 12.5089 9.59723C12.4302 9.06666 12.183 8.57545 11.8037 8.19618C11.4244 7.8169 10.9332 7.56966 10.4026 7.49098Z" fill="#12F7D6"/>
<path d="M14.5833 4.58334C14.123 4.58334 13.7499 4.95643 13.7499 5.41667C13.7499 5.87691 14.123 6.25 14.5833 6.25H14.5916C15.0518 6.25 15.4249 5.87691 15.4249 5.41667C15.4249 4.95643 15.0518 4.58334 14.5916 4.58334H14.5833Z" fill="#12F7D6"/>
<path fill-rule="evenodd" clip-rule="evenodd" d="M0.833252 5.83334C0.833252 3.07191 3.07183 0.833336 5.83325 0.833336H14.1666C16.928 0.833336 19.1666 3.07191 19.1666 5.83334V14.1667C19.1666 16.9281 16.928 19.1667 14.1666 19.1667H5.83325C3.07183 19.1667 0.833252 16.9281 0.833252 14.1667V5.83334ZM5.83325 2.5C3.9923 2.5 2.49992 3.99239 2.49992 5.83334V14.1667C2.49992 16.0076 3.9923 17.5 5.83325 17.5H14.1666C16.0075 17.5 17.4999 16.0076 17.4999 14.1667V5.83334C17.4999 3.99239 16.0075 2.5 14.1666 2.5H5.83325Z" fill="#12F7D6"/>
</g>
<defs>
<clipPath id="clip0_540_816">
<rect width="20" height="20" fill="white"/>
</clipPath>
</defs>
</svg>
