<svg xmlns="http://www.w3.org/2000/svg" xmlns:xlink="http://www.w3.org/1999/xlink" width="500" zoomAndPan="magnify" viewBox="0 0 375 374.999991" height="500" preserveAspectRatio="xMidYMid meet" version="1.0"><defs><g/><clipPath id="b039165ec8"><path d="M 187.5 -43.429688 C 69.679688 -43.429688 -25.828125 52.078125 -25.828125 169.898438 C -25.828125 287.714844 69.679688 383.226562 187.5 383.226562 C 305.320312 383.226562 400.828125 287.714844 400.828125 169.898438 C 400.828125 52.078125 305.320312 -43.429688 187.5 -43.429688 Z M 187.5 -43.429688 " clip-rule="nonzero"/></clipPath></defs><g clip-path="url(#b039165ec8)"><rect x="-37.5" width="450" fill="#004aad" y="-37.499999" height="449.999989" fill-opacity="1"/></g><g fill="#12f7d6" fill-opacity="1"><g transform="translate(135.061628, 393.431257)"><g><path d="M -62.640625 -250.71875 C -60.828125 -251.46875 -58.707031 -251.664062 -56.28125 -251.3125 C -53.863281 -250.96875 -51.238281 -249.660156 -48.40625 -247.390625 C -44.820312 -244.523438 -41.992188 -241.097656 -39.921875 -237.109375 C -37.847656 -233.128906 -36.804688 -229.234375 -36.796875 -225.421875 C -36.785156 -221.617188 -37.851562 -218.375 -40 -215.6875 C -41.195312 -214.1875 -42.660156 -212.96875 -44.390625 -212.03125 C -46.128906 -211.101562 -48.726562 -209.691406 -52.1875 -207.796875 C -58 -205.128906 -63.460938 -201.976562 -68.578125 -198.34375 C -73.691406 -194.71875 -78.929688 -189.550781 -84.296875 -182.84375 C -87.640625 -178.65625 -90.066406 -174.472656 -91.578125 -170.296875 C -93.085938 -166.117188 -93.613281 -162.25 -93.15625 -158.6875 C -92.695312 -155.132812 -91.125 -152.285156 -88.4375 -150.140625 C -85.007812 -147.390625 -81.039062 -146.226562 -76.53125 -146.65625 C -72.019531 -147.09375 -66.785156 -148.660156 -60.828125 -151.359375 C -54.867188 -154.054688 -47.816406 -157.289062 -39.671875 -161.0625 C -24.828125 -168.28125 -11.796875 -173.765625 -0.578125 -177.515625 C 10.628906 -181.273438 20.851562 -182.578125 30.09375 -181.421875 C 39.332031 -180.273438 48.429688 -176.117188 57.390625 -168.953125 C 63.804688 -163.804688 68.875 -157.289062 72.59375 -149.40625 C 76.320312 -141.53125 78.4375 -132.859375 78.9375 -123.390625 C 79.445312 -113.929688 78.085938 -104.125 74.859375 -93.96875 C 71.628906 -83.820312 66.195312 -73.972656 58.5625 -64.421875 C 52.582031 -56.953125 46.300781 -50.40625 39.71875 -44.78125 C 33.132812 -39.164062 26.695312 -34.648438 20.40625 -31.234375 C 14.113281 -27.816406 8.535156 -25.363281 3.671875 -23.875 C -3.597656 -22.113281 -9.328125 -22.90625 -13.515625 -26.25 C -16.492188 -28.632812 -18.859375 -31.875 -20.609375 -35.96875 C -22.359375 -40.0625 -23.359375 -44.164062 -23.609375 -48.28125 C -23.859375 -52.40625 -23.207031 -55.4375 -21.65625 -57.375 C -20.695312 -58.570312 -19.289062 -59.710938 -17.4375 -60.796875 C -15.582031 -61.890625 -13.285156 -62.925781 -10.546875 -63.90625 C -4.578125 -66.476562 1.414062 -69.757812 7.4375 -73.75 C 13.457031 -77.738281 19.394531 -83.390625 25.25 -90.703125 C 29.550781 -96.078125 32.515625 -101.234375 34.140625 -106.171875 C 35.773438 -111.117188 36.238281 -115.523438 35.53125 -119.390625 C 34.832031 -123.253906 33.0625 -126.320312 30.21875 -128.59375 C 26.5 -131.570312 22.140625 -132.921875 17.140625 -132.640625 C 12.140625 -132.367188 6.101562 -130.71875 -0.96875 -127.6875 C -8.050781 -124.664062 -16.507812 -120.226562 -26.34375 -114.375 C -33.769531 -110.289062 -41.210938 -106.644531 -48.671875 -103.4375 C -56.140625 -100.238281 -63.6875 -98.078125 -71.3125 -96.953125 C -78.945312 -95.835938 -86.535156 -96.15625 -94.078125 -97.90625 C -101.617188 -99.65625 -109.046875 -103.453125 -116.359375 -109.296875 C -126.054688 -117.066406 -132.46875 -126.488281 -135.59375 -137.5625 C -138.726562 -148.644531 -138.675781 -160.484375 -135.4375 -173.078125 C -132.207031 -185.679688 -125.632812 -198.175781 -115.71875 -210.5625 C -108.3125 -219.8125 -99.800781 -227.992188 -90.1875 -235.109375 C -80.582031 -242.222656 -71.398438 -247.425781 -62.640625 -250.71875 Z M -62.640625 -250.71875 "/></g></g></g><g fill="#12f7d6" fill-opacity="1"><g transform="translate(247.072267, 253.528056)"><g><path d="M 22.671875 -47.59375 C 26.078125 -42.664062 27.382812 -37.640625 26.59375 -32.515625 C 25.800781 -27.398438 22.535156 -21.257812 16.796875 -14.09375 C 12.015625 -8.125 7.472656 -4.898438 3.171875 -4.421875 C -1.128906 -3.953125 -4.617188 -4.789062 -7.296875 -6.9375 C -10.140625 -9.207031 -12.617188 -11.925781 -14.734375 -15.09375 C -16.847656 -18.257812 -18.90625 -21.5 -20.90625 -24.8125 C -29.832031 -40.28125 -38.273438 -55.425781 -46.234375 -70.25 C -54.203125 -85.082031 -61.757812 -99.582031 -68.90625 -113.75 C -76.050781 -127.914062 -82.890625 -141.773438 -89.421875 -155.328125 C -95.953125 -168.890625 -102.109375 -182.148438 -107.890625 -195.109375 C -111.253906 -202.222656 -112.644531 -208.664062 -112.0625 -214.4375 C -111.488281 -220.21875 -109.171875 -225.644531 -105.109375 -230.71875 C -99.960938 -237.132812 -94.328125 -241.566406 -88.203125 -244.015625 C -82.085938 -246.460938 -76.347656 -246.757812 -70.984375 -244.90625 C -69.296875 -244.550781 -64.625 -242.957031 -56.96875 -240.125 C -49.320312 -237.300781 -39.65625 -233.78125 -27.96875 -229.5625 C -16.28125 -225.351562 -3.675781 -220.832031 9.84375 -216 C 23.375 -211.175781 36.875 -206.550781 50.34375 -202.125 C 63.820312 -197.695312 76.289062 -193.773438 87.75 -190.359375 C 99.207031 -186.941406 108.414062 -184.53125 115.375 -183.125 C 117.59375 -182.8125 119.972656 -182.1875 122.515625 -181.25 C 125.066406 -180.3125 126.941406 -179.363281 128.140625 -178.40625 C 131.421875 -175.769531 133.035156 -171.59375 132.984375 -165.875 C 132.941406 -160.164062 130.535156 -154.328125 125.765625 -148.359375 C 122.535156 -144.328125 119.148438 -141.09375 115.609375 -138.65625 C 112.078125 -136.226562 107.59375 -135.597656 102.15625 -136.765625 C 89.195312 -139.554688 75.285156 -143.597656 60.421875 -148.890625 C 45.554688 -154.179688 30.632812 -159.9375 15.65625 -166.15625 C 0.6875 -172.382812 -13.660156 -178.238281 -27.390625 -183.71875 C -41.117188 -189.207031 -53.335938 -193.675781 -64.046875 -197.125 C -54.242188 -177.257812 -44.242188 -158.472656 -34.046875 -140.765625 C -23.859375 -123.054688 -13.929688 -106.472656 -4.265625 -91.015625 C 5.398438 -75.566406 14.378906 -61.09375 22.671875 -47.59375 Z M -30.203125 -84.78125 C -33.785156 -87.644531 -35.890625 -90.984375 -36.515625 -94.796875 C -37.140625 -98.609375 -36.992188 -102.226562 -36.078125 -105.65625 C -35.160156 -109.09375 -34.195312 -111.75 -33.1875 -113.625 C -31.300781 -117.5 -28.867188 -121.984375 -25.890625 -127.078125 C -22.921875 -132.171875 -18.875 -137.988281 -13.75 -144.53125 C -8.632812 -151.082031 -1.972656 -158.421875 6.234375 -166.546875 C 7.472656 -167.773438 9.441406 -170.300781 12.140625 -174.125 C 14.847656 -177.957031 17.773438 -182.226562 20.921875 -186.9375 C 24.078125 -191.644531 26.953125 -196.078125 29.546875 -200.234375 C 32.148438 -204.390625 34.023438 -207.347656 35.171875 -209.109375 C 38.066406 -213.660156 41.71875 -216.3125 46.125 -217.0625 C 50.539062 -217.820312 55.0625 -216.347656 59.6875 -212.640625 C 63.863281 -209.296875 66.171875 -205 66.609375 -199.75 C 67.054688 -194.5 66.253906 -188.832031 64.203125 -182.75 C 62.160156 -176.675781 59.535156 -170.941406 56.328125 -165.546875 C 53.117188 -160.160156 50.023438 -155.609375 47.046875 -151.890625 C 40.234375 -143.378906 33.890625 -135.535156 28.015625 -128.359375 C 22.140625 -121.179688 16.582031 -113.929688 11.34375 -106.609375 C 6.101562 -99.296875 0.660156 -91.046875 -4.984375 -81.859375 C -6.628906 -79.503906 -10.160156 -78.535156 -15.578125 -78.953125 C -21.003906 -79.378906 -25.878906 -81.320312 -30.203125 -84.78125 Z M -30.203125 -84.78125 "/></g></g></g></svg>